<?xml version="1.0" encoding="utf-8"?>
<!-- Generator: Adobe Illustrator 16.0.0, SVG Export Plug-In . SVG Version: 6.00 Build 0)  -->
<!DOCTYPE svg PUBLIC "-//W3C//DTD SVG 1.1//EN" "http://www.w3.org/Graphics/SVG/1.1/DTD/svg11.dtd">
<svg version="1.1" id="Warstwa_1" xmlns="http://www.w3.org/2000/svg" xmlns:xlink="http://www.w3.org/1999/xlink" x="0px" y="0px"
	 width="480px" height="472.33px" viewBox="0 0 480 472.33" enable-background="new 0 0 480 472.33" xml:space="preserve">
<path fill="#28316F" d="M448,219.332V168.33c-0.027-26.498-21.502-47.972-48-48h-16V55.69c0.051-26.489-21.383-48.002-47.871-48.052
	c-6.135-0.013-12.215,1.153-17.91,3.434l-74.24,29.667c-56.877-55.368-147.872-54.145-203.24,2.733
	C14.548,70.376-0.074,106.462,0,144.01c0.236,5.036,0.744,10.058,1.52,15.039c-0.91,3.015-1.421,6.135-1.52,9.28v256
	c0.03,26.496,21.503,47.972,48,48h352c26.498-0.028,47.971-21.504,48-48v-50.881c19.123-6.736,31.938-24.777,32-45.053v-64
	C479.943,244.117,467.127,226.07,448,219.332z M330.016,40.791c8.185-3.313,17.502,0.633,20.816,8.814
	c0.783,1.933,1.18,4,1.168,6.085v64.64h-66.393c-3.135-19.07-10.111-37.307-20.506-53.6L330.016,40.791z M144,32.009
	c61.856,0,112,50.146,112,112.001s-50.144,112-112,112s-112-50.145-112-112C32.075,82.184,82.175,32.083,144,32.009z M400,440.33H48
	c-8.832-0.012-15.989-7.168-16-16l0.186-190.697c48.913,61.972,138.803,72.56,200.775,23.646
	c32.352-25.533,52.107-63.788,54.201-104.948H400c8.832,0.011,15.99,7.168,16,16v48.056h-48c-26.496,0.028-47.969,21.502-48,48v64
	c0.029,26.497,21.502,47.971,48,47.999h48v47.945C415.99,433.162,408.832,440.318,400,440.33z M448,328.391
	c-0.018,8.764-7.082,15.883-15.846,15.967L432,344.33l-0.32,0.062H368c-8.832-0.013-15.988-7.168-16-16v-64
	c0.012-8.832,7.168-15.99,16-16h64c8.832,0.01,15.99,7.168,16,16V328.391z"/>
<path fill="#03A9F4" d="M96,160.01h32v32c0,8.837,7.164,16,16,16s16-7.163,16-16v-32h32c8.836,0,16-7.163,16-16s-7.164-16-16-16h-32
	v-32c0-8.837-7.164-16-16-16s-16,7.163-16,16v32H96c-8.836,0-16,7.163-16,16S87.164,160.01,96,160.01z"/>
</svg>
