<?xml version="1.0" encoding="utf-8"?>
<!-- Generator: Adobe Illustrator 16.0.0, SVG Export Plug-In . SVG Version: 6.00 Build 0)  -->
<!DOCTYPE svg PUBLIC "-//W3C//DTD SVG 1.1//EN" "http://www.w3.org/Graphics/SVG/1.1/DTD/svg11.dtd">
<svg version="1.1" id="Capa_1" xmlns="http://www.w3.org/2000/svg" xmlns:xlink="http://www.w3.org/1999/xlink" x="0px" y="0px"
	 width="501.102px" height="595.28px" viewBox="47.089 123.306 501.102 595.28"
	 enable-background="new 47.089 123.306 501.102 595.28" xml:space="preserve">
<path fill="#2A2F71" d="M530.751,683.706h-19.84V326.813c0-9.632-7.809-17.44-17.441-17.44h-83.27
	c-9.631,0-17.439,7.809-17.439,17.44v356.893h-36.047V391.941c0-9.631-7.809-17.439-17.439-17.439h-83.271
	c-9.632,0-17.44,7.809-17.44,17.439v291.765h-36.047V457.069c0-9.632-7.809-17.439-17.44-17.439h-83.27
	c-9.631,0-17.44,7.808-17.44,17.439v226.637H64.529c-9.632,0-17.44,7.809-17.44,17.439c0,9.632,7.808,17.44,17.44,17.44h466.223
	c9.631,0,17.439-7.809,17.439-17.44C548.191,691.514,540.382,683.706,530.751,683.706z M427.642,344.253h48.391v339.453h-48.391
	V344.253z M273.444,409.382h48.391v274.324h-48.391V409.382z M119.248,474.509h48.391v209.197h-48.391V474.509z"/>
<path fill="#03A9F4" d="M133.452,340.67c15.413,2.407,30.861,3.599,46.225,3.599c59.463,0,117.644-17.832,167.522-51.908
	c40.207-27.468,72.514-63.634,94.939-105.954l0.719,1.872c2.662,6.935,9.273,11.191,16.283,11.191c2.078,0,4.191-0.374,6.25-1.164
	c8.99-3.453,13.48-13.541,10.027-22.533l-15.852-41.274c-3.453-8.991-13.541-13.48-22.533-10.028l-41.275,15.853
	c-8.99,3.453-13.48,13.541-10.027,22.533c3.455,8.992,13.541,13.479,22.533,10.027l1.928-0.74
	c-19.742,36.442-47.842,67.626-82.666,91.417c-55.41,37.855-122.422,53-188.688,42.649c-9.518-1.484-18.437,5.022-19.923,14.539
	C117.426,330.263,123.935,339.182,133.452,340.67L133.452,340.67z"/>
</svg>
