<?xml version="1.0" encoding="utf-8"?>
<!-- Generator: Adobe Illustrator 16.0.0, SVG Export Plug-In . SVG Version: 6.00 Build 0)  -->
<!DOCTYPE svg PUBLIC "-//W3C//DTD SVG 1.1//EN" "http://www.w3.org/Graphics/SVG/1.1/DTD/svg11.dtd">
<svg version="1.1" id="Warstwa_1" xmlns="http://www.w3.org/2000/svg" xmlns:xlink="http://www.w3.org/1999/xlink" x="0px" y="0px"
	 width="576.679px" height="576.678px" viewBox="9.301 132.606 576.679 576.678"
	 enable-background="new 9.301 132.606 576.679 576.678" xml:space="preserve">
<g id="Layer_1">
</g>
<g id="Payment_Terminal">
</g>
<g id="ATM">
</g>
<g id="Scale">
</g>
<g id="Stack_of_Coin">
</g>
<g id="Diamond">
</g>
<g id="Save_Money">
</g>
<g id="Tax">
</g>
<g id="Protection">
</g>
<g id="Document">
</g>
<g id="Safebox">
</g>
<g id="Wallet">
</g>
<g id="Security_Bank">
</g>
<g id="Banker">
</g>
<g id="Money">
</g>
<g id="Credit_card">
</g>
<g id="Payment">
</g>
<g id="Money_Truck">
</g>
<path fill="#2A2F71" d="M396.093,508.508c3.637,3.627,8.391,5.45,13.152,5.45s9.516-1.813,13.152-5.45
	c7.264-7.265,7.264-19.04,0-26.304l-87.553-87.572V262.824c0-10.269-8.334-18.603-18.604-18.603
	c-10.268,0-18.602,8.334-18.602,18.603v139.519c0,4.93,1.963,9.664,5.451,13.152L396.093,508.508z"/>
<path fill="#03A9F4" d="M396.093,508.508c3.637,3.627,8.391,5.45,13.152,5.45s9.516-1.813,13.152-5.45
	c7.264-7.265,7.264-19.04,0-26.304l-87.553-87.572V262.824c0-10.269-8.334-18.603-18.604-18.603
	c-10.268,0-18.602,8.334-18.602,18.603v139.519c0,4.93,1.963,9.664,5.451,13.152L396.093,508.508z"/>
<path fill="#2A2F71" d="M507.998,591.819c48.18-48.748,77.982-115.689,77.982-189.477s-29.803-140.728-77.982-189.476
	c-0.354-0.419-0.633-0.865-1.033-1.256c-0.391-0.391-0.836-0.679-1.256-1.023c-48.738-48.171-115.68-77.981-189.467-77.981
	c-73.786,0-140.727,29.811-189.484,77.981c-0.409,0.345-0.855,0.633-1.246,1.023s-0.67,0.837-1.014,1.246
	c-48.18,48.748-77.991,115.689-77.991,189.485c0,3.692,0.297,7.376,0.446,11.078c-23.43,13.356-37.651,32.303-37.651,54.031v167.422
	c0,42.424,53.984,74.41,125.567,74.41c53.947,0,97.868-18.184,116.256-45.288c21.226,5.265,43.046,8.083,65.117,8.083
	c73.787,0,140.729-29.811,189.477-77.981c0.418-0.344,0.865-0.633,1.256-1.023S507.654,592.228,507.998,591.819z M139.305,251.709
	l12.51,12.51c3.627,3.638,8.39,5.451,13.152,5.451c4.763,0,9.525-1.813,13.152-5.451c7.264-7.264,7.264-19.039,0-26.304
	l-12.51-12.51c36.182-30.843,81.879-50.794,132.031-54.784v17.793c0,10.269,8.334,18.603,18.602,18.603
	c10.27,0,18.604-8.334,18.604-18.603v-17.793c50.152,3.99,95.85,23.941,132.031,54.784l-12.51,12.51
	c-7.266,7.265-7.266,19.04,0,26.304c3.637,3.638,8.389,5.451,13.152,5.451c4.762,0,9.514-1.813,13.15-5.451l12.512-12.51
	c30.842,36.182,50.793,81.879,54.783,132.031h-17.793c-10.268,0-18.602,8.334-18.602,18.603s8.334,18.603,18.602,18.603h17.793
	c-3.99,50.152-23.941,95.85-54.783,132.031l-12.512-12.51c-7.264-7.265-19.039-7.265-26.303,0c-7.266,7.264-7.266,19.039,0,26.304
	l12.51,12.511c-36.182,30.843-81.879,50.794-132.031,54.784v-17.794c0-10.269-8.334-18.603-18.602-18.603
	c-10.27,0-18.604,8.334-18.604,18.603v17.821c-12.584-0.995-25.002-3.088-37.205-6.092V467.452c0-42.423-53.984-74.41-125.567-74.41
	c-18.407,0-35.614,2.148-51.073,6.008C84.585,342.908,105.346,291.546,139.305,251.709L139.305,251.709z M46.506,521.241
	c22.351,12.873,53.212,20.62,88.362,20.62s66.011-7.747,88.362-20.62v29.922c0,15.17-34.424,37.205-88.362,37.205
	s-88.362-22.035-88.362-37.205V521.241z M134.868,430.247c53.938,0,88.362,22.034,88.362,37.205
	c0,15.17-34.424,37.205-88.362,37.205s-88.362-22.035-88.362-37.205C46.506,452.281,80.93,430.247,134.868,430.247z
	 M134.868,672.079c-53.938,0-88.362-22.034-88.362-37.205v-29.922c22.351,12.873,53.212,20.621,88.362,20.621
	s66.011-7.748,88.362-20.621v29.922C223.23,650.045,188.806,672.079,134.868,672.079z"/>
<g id="Cheque">
</g>
<g id="Bank">
</g>
</svg>
