<?xml version="1.0" encoding="utf-8"?>
<!-- Generator: Adobe Illustrator 16.0.0, SVG Export Plug-In . SVG Version: 6.00 Build 0)  -->
<!DOCTYPE svg PUBLIC "-//W3C//DTD SVG 1.1//EN" "http://www.w3.org/Graphics/SVG/1.1/DTD/svg11.dtd">
<svg version="1.1" id="Capa_1" xmlns="http://www.w3.org/2000/svg" xmlns:xlink="http://www.w3.org/1999/xlink" x="0px" y="0px"
	 width="595.28px" height="563.7px" viewBox="0 139.094 595.28 563.7" enable-background="new 0 139.094 595.28 563.7"
	 xml:space="preserve">
<path fill="#2A2F71" d="M583.343,424.38c-9.297-11.833-22.771-19.272-37.94-20.946c-15.285-1.688-30.853,2.901-42.707,12.587
	l-87.343,71.36c-4.44-12.754-13.334-23.433-24.815-30.172c47.945-30.705,79.789-84.445,79.789-145.482
	c0-95.189-77.443-172.633-172.634-172.633c-95.188,0-172.632,77.442-172.632,172.633c0,47.116,18.981,89.877,49.688,121.059
	c-33.224,2.005-58.546,12.207-68.233,16.688H17.443C7.81,449.473,0,457.282,0,466.915v218.437c0,9.633,7.81,17.442,17.443,17.442
	h93.098c9.633,0,17.443-7.811,17.443-17.442v-28.304h222.424c23.182,0,45.826-8.086,63.762-22.771l160.496-131.381
	C598.296,483.59,602.189,448.366,583.343,424.38z M297.693,173.981c75.953,0,137.749,61.794,137.749,137.747
	c0,75.954-61.796,137.747-137.749,137.747c-75.952,0-137.746-61.793-137.746-137.747
	C159.946,235.773,221.739,173.981,297.693,173.981L297.693,173.981z M93.098,667.909H34.886V484.36h58.212V667.909z
	 M552.582,475.891L392.074,607.282c-11.722,9.596-26.519,14.879-41.666,14.879H127.983V478.219
	c11.318-4.431,32.28-10.901,58.153-10.901c15.615,0,30.549,2.351,44.388,6.98c19.944,6.678,41.167,10.063,63.079,10.063h68.477
	c11.865,0,21.52,9.654,21.52,21.521c0,11.864-9.653,21.52-21.52,21.52H235.108c-9.633,0-17.443,7.811-17.443,17.443
	s7.81,17.441,17.443,17.441h126.97c19.072,0,35.951-9.522,46.166-24.055c0.024-0.021,0.053-0.037,0.078-0.059l116.444-95.138
	c4.648-3.797,10.771-5.595,16.808-4.928c5.783,0.639,10.875,3.417,14.336,7.824C563.097,455.079,561.611,468.514,552.582,475.891
	L552.582,475.891z"/>
<path fill="#03A9F4" d="M295.927,360.036c-8.084,0-17.164-2.861-24.284-7.655c-7.994-5.379-18.832-3.261-24.211,4.729
	c-5.378,7.993-3.261,18.832,4.732,24.21c8.41,5.661,18.156,9.729,28.085,11.868v3.627c0,9.634,7.81,17.443,17.443,17.443
	c9.634,0,17.442-7.811,17.442-17.443v-4.98c16.285-5.449,28.941-17.756,33.707-33.96c7.935-26.987-6.024-53.235-33.949-63.834
	c-4.104-1.558-7.807-2.839-11.071-3.973c-10.207-3.534-14.509-5.131-18.484-9.145c-2.998-3.026-4.326-6.713-3.642-10.117
	c0.679-3.377,3.323-6.179,7.447-7.891c6.525-2.705,19.169,1.188,27.753,6.228c8.306,4.878,18.996,2.1,23.873-6.21
	c4.877-8.308,2.099-18.995-6.211-23.873c-3.373-1.98-10.469-5.781-19.422-8.563v-3.86c0-9.634-7.809-17.443-17.442-17.443
	c-9.633,0-17.443,7.811-17.443,17.443v2.476c-1.5,0.441-2.996,0.967-4.48,1.583c-14.976,6.214-25.282,18.327-28.279,33.237
	c-2.967,14.766,1.917,30.296,13.063,41.546c9.841,9.932,20.039,13.464,31.849,17.555c3.188,1.104,6.487,2.245,10.112,3.623
	c10.783,4.094,15.59,12.083,12.859,21.376C313.197,355.437,305.746,360.036,295.927,360.036L295.927,360.036z"/>
</svg>
