<?xml version="1.0" encoding="utf-8"?>
<!-- Generator: Adobe Illustrator 16.0.0, SVG Export Plug-In . SVG Version: 6.00 Build 0)  -->
<!DOCTYPE svg PUBLIC "-//W3C//DTD SVG 1.1//EN" "http://www.w3.org/Graphics/SVG/1.1/DTD/svg11.dtd">
<svg version="1.1" id="Warstwa_1" xmlns="http://www.w3.org/2000/svg" xmlns:xlink="http://www.w3.org/1999/xlink" x="0px" y="0px"
	 width="226.001px" height="75.644px" viewBox="0 0 226.001 75.644" enable-background="new 0 0 226.001 75.644"
	 xml:space="preserve">
<g>
	<g>
		<path fill="#28316F" d="M84.003,51.901v-27.62c0-5.611,3.76-9.75,9.261-9.75h4.795c0.489,0,0.764,0.272,0.764,0.708v3.104
			c0,0.492-0.274,0.764-0.764,0.764h-4.411c-2.833,0-4.742,2.178-4.742,5.283v7.08h8.119c0.433,0,0.706,0.274,0.706,0.71v3.105
			c0,0.438-0.273,0.708-0.706,0.708h-8.119v15.908c0,0.489-0.271,0.764-0.706,0.764h-3.487
			C84.275,52.665,84.003,52.391,84.003,51.901z"/>
		<path fill="#28316F" d="M103.776,14.531h3.433c0.436,0,0.708,0.272,0.708,0.708v36.662c0,0.489-0.272,0.764-0.708,0.764h-3.433
			c-0.489,0-0.762-0.274-0.762-0.764V15.239C103.015,14.803,103.287,14.531,103.776,14.531z"/>
		<path fill="#28316F" d="M114.182,51.901V23.954c0-5.882,3.648-10.024,9.315-10.024c5.665,0,9.367,4.141,9.367,10.024v27.947
			c0,0.489-0.268,0.764-0.761,0.764h-3.431c-0.438,0-0.766-0.274-0.766-0.764V23.737c0-3.105-1.688-5.176-4.41-5.176
			c-2.724,0-4.413,2.071-4.413,5.176v28.165c0,0.489-0.275,0.764-0.712,0.764h-3.484C114.456,52.665,114.182,52.391,114.182,51.901z
			"/>
		<path fill="#28316F" d="M138.747,51.901V24.009c0-5.992,3.704-10.024,9.319-10.024c5.608,0,9.365,4.033,9.365,10.024v27.892
			c0,0.489-0.27,0.764-0.759,0.764h-3.433c-0.437,0-0.766-0.274-0.766-0.764V39.809h-8.823v12.093c0,0.489-0.274,0.764-0.71,0.764
			h-3.483C139.021,52.665,138.747,52.391,138.747,51.901z M152.475,35.285V23.79c0-3.268-1.577-5.173-4.408-5.173
			c-2.779,0-4.415,1.905-4.415,5.173v11.495H152.475z"/>
		<path fill="#28316F" d="M163.313,51.901V23.954c0-5.882,3.651-10.024,9.318-10.024c5.663,0,9.366,4.141,9.366,10.024v27.947
			c0,0.489-0.269,0.764-0.76,0.764h-3.434c-0.434,0-0.764-0.274-0.764-0.764V23.737c0-3.105-1.685-5.176-4.409-5.176
			c-2.724,0-4.414,2.071-4.414,5.176v28.165c0,0.489-0.273,0.764-0.709,0.764h-3.486C163.588,52.665,163.313,52.391,163.313,51.901z
			"/>
		<path fill="#28316F" d="M187.282,43.458V23.737c0-5.884,3.757-9.807,9.314-9.807c5.339,0,8.988,4.087,9.153,10.46
			c0,0.436-0.22,0.708-0.71,0.708h-3.488c-0.435,0-0.706-0.218-0.706-0.708c-0.111-3.813-1.797-5.829-4.309-5.829
			c-2.722,0-4.301,1.852-4.301,4.903v20.265c0,3.051,1.579,4.902,4.301,4.902c2.783,0,4.468-2.231,4.579-6.208
			c0-0.492,0.272-0.708,0.707-0.708h3.489c0.437,0,0.707,0.271,0.707,0.761c-0.218,6.592-3.866,10.787-9.425,10.787
			C191.039,53.263,187.282,49.343,187.282,43.458z"/>
		<path fill="#28316F" d="M209.454,43.075V24.119c0-5.612,3.813-9.752,9.314-9.752h5.721c0.437,0,0.709,0.271,0.709,0.709v3.107
			c0,0.489-0.272,0.763-0.709,0.763h-5.339c-2.833,0-4.74,2.179-4.74,5.284v6.919h8.716c0.492,0,0.764,0.271,0.764,0.761v2.941
			c0,0.489-0.271,0.764-0.764,0.764h-8.716v7.355c0,3.104,1.907,5.283,4.74,5.283h5.339c0.437,0,0.709,0.271,0.709,0.763v3.104
			c0,0.436-0.272,0.709-0.709,0.709h-5.721C213.267,52.827,209.454,48.688,209.454,43.075z"/>
	</g>
	<g>
		
			<linearGradient id="SVGID_1_" gradientUnits="userSpaceOnUse" x1="21.7192" y1="637.0283" x2="0.2838" y2="581.5833" gradientTransform="matrix(1 0 0 -1 0.04 643.8555)">
			<stop  offset="0.0026" style="stop-color:#1FB0E7"/>
			<stop  offset="0.1719" style="stop-color:#15B7EC"/>
			<stop  offset="0.5138" style="stop-color:#5DC5F1"/>
			<stop  offset="0.802" style="stop-color:#7BCDF4"/>
			<stop  offset="1" style="stop-color:#85D1F5"/>
		</linearGradient>
		<path fill="url(#SVGID_1_)" d="M26.73,0.9L3.364,14.391C1.278,15.594,0,17.813,0,20.214v26.985c0,2.4,1.278,4.623,3.364,5.821
			l14.392,8.311l0,0c-8.07-4.658-6.352-12.062-2.109-19.288c2.997-5.109,15.32-26.482,22.278-38.563L33.448,0.9
			C31.376-0.3,28.81-0.3,26.73,0.9z"/>
		
			<linearGradient id="SVGID_2_" gradientUnits="userSpaceOnUse" x1="51.3164" y1="600.1895" x2="28.0238" y2="646.0994" gradientTransform="matrix(1 0 0 -1 0.04 643.8555)">
			<stop  offset="0.0026" style="stop-color:#F2910C"/>
			<stop  offset="0.1805" style="stop-color:#F6A325"/>
			<stop  offset="0.5188" style="stop-color:#FABC45"/>
			<stop  offset="0.8041" style="stop-color:#FDCC5B"/>
			<stop  offset="1" style="stop-color:#FED063"/>
		</linearGradient>
		<path fill="url(#SVGID_2_)" d="M60.187,47.199V20.214c0-2.401-1.281-4.622-3.362-5.823L33.448,0.9c-2.072-1.2-4.639-1.2-6.718,0
			L12.332,9.212l0,0c8.078-4.661,13.623,0.528,17.76,7.813c2.925,5.155,15.278,26.51,22.259,38.576l4.475-2.58
			C58.906,51.822,60.187,49.599,60.187,47.199z"/>
		
			<linearGradient id="SVGID_3_" gradientUnits="userSpaceOnUse" x1="15.4839" y1="594.3428" x2="68.3172" y2="595.2712" gradientTransform="matrix(1 0 0 -1 0.04 643.8555)">
			<stop  offset="0.0026" style="stop-color:#28316F"/>
			<stop  offset="0.2239" style="stop-color:#2A3C7E"/>
			<stop  offset="0.5443" style="stop-color:#254D92"/>
			<stop  offset="0.8144" style="stop-color:#21589E"/>
			<stop  offset="1" style="stop-color:#1F5BA3"/>
		</linearGradient>
		<path fill="url(#SVGID_3_)" d="M60.187,30.574L60.187,30.574c0,9.317-7.271,11.537-15.65,11.469
			c-4.037-0.031-16.765-0.031-28.879-0.025c-0.007,0.013-0.007,0.022-0.013,0.025c-4.242,7.226-5.959,14.63,2.109,19.288
			l8.974,5.184c2.08,1.197,4.646,1.197,6.718,0l23.376-13.493c2.081-1.2,3.362-3.422,3.362-5.822V30.574H60.187z"/>
	</g>
	<path fill="#28316F" d="M77.487,34.558c0,2.98-2.41,5.395-5.395,5.395c-2.982,0-5.391-2.415-5.391-5.395
		c0-2.988,2.41-5.401,5.391-5.401C75.077,29.157,77.487,31.572,77.487,34.558z"/>
</g>
<g>
	<path fill="#FFFFFF" d="M93.88,72.979h-1.095c-0.127,0-0.229-0.032-0.307-0.095c-0.078-0.063-0.137-0.144-0.176-0.241l-0.978-2.526
		h-4.694l-0.979,2.526c-0.034,0.088-0.092,0.166-0.175,0.234c-0.083,0.068-0.185,0.102-0.307,0.102h-1.095l4.183-10.461h1.438
		L93.88,72.979z M87.025,69.096h3.905l-1.643-4.256c-0.107-0.263-0.212-0.591-0.313-0.985c-0.054,0.2-0.106,0.383-0.157,0.551
		s-0.102,0.315-0.149,0.441L87.025,69.096z"/>
	<path fill="#FFFFFF" d="M97.201,71.79h4.525v1.19h-5.941V62.519h1.416V71.79z"/>
	<path fill="#FFFFFF" d="M105.29,71.79h4.525v1.19h-5.941V62.519h1.416V71.79z"/>
	<path fill="#FFFFFF" d="M113.641,72.979h-1.416V62.519h1.416V72.979z"/>
	<path fill="#FFFFFF" d="M125.635,72.979h-1.095c-0.127,0-0.229-0.032-0.307-0.095c-0.078-0.063-0.137-0.144-0.176-0.241
		l-0.978-2.526h-4.694l-0.979,2.526c-0.034,0.088-0.092,0.166-0.175,0.234c-0.083,0.068-0.185,0.102-0.307,0.102h-1.095
		l4.183-10.461h1.438L125.635,72.979z M118.78,69.096h3.905l-1.643-4.256c-0.107-0.263-0.212-0.591-0.313-0.985
		c-0.054,0.2-0.106,0.383-0.157,0.551s-0.102,0.315-0.149,0.441L118.78,69.096z"/>
	<path fill="#FFFFFF" d="M128.551,62.566c0.061,0.032,0.13,0.096,0.208,0.193l6.059,7.884c-0.014-0.126-0.024-0.25-0.028-0.369
		c-0.005-0.119-0.008-0.235-0.008-0.347v-7.41h1.241v10.461h-0.716c-0.111,0-0.205-0.02-0.28-0.059
		c-0.076-0.039-0.15-0.104-0.223-0.197l-6.052-7.877c0.009,0.122,0.017,0.241,0.021,0.358s0.007,0.224,0.007,0.321v7.453h-1.24
		V62.519h0.729C128.396,62.519,128.49,62.535,128.551,62.566z"/>
	<path fill="#FFFFFF" d="M146.534,70.819c0.077,0,0.148,0.032,0.211,0.095l0.556,0.606c-0.429,0.497-0.948,0.883-1.559,1.161
		c-0.611,0.277-1.348,0.416-2.209,0.416c-0.754,0-1.438-0.13-2.051-0.391c-0.613-0.26-1.137-0.625-1.569-1.095
		c-0.434-0.47-0.77-1.033-1.008-1.69c-0.238-0.657-0.357-1.38-0.357-2.168c0-0.789,0.128-1.511,0.383-2.168
		c0.256-0.657,0.614-1.221,1.077-1.693c0.462-0.472,1.016-0.838,1.66-1.099c0.646-0.26,1.357-0.391,2.136-0.391
		c0.769,0,1.432,0.119,1.989,0.357c0.557,0.239,1.053,0.563,1.485,0.971l-0.46,0.649c-0.034,0.049-0.073,0.089-0.116,0.121
		c-0.044,0.032-0.107,0.047-0.19,0.047c-0.063,0-0.13-0.023-0.2-0.069c-0.071-0.046-0.155-0.103-0.252-0.171
		c-0.098-0.068-0.212-0.141-0.344-0.219c-0.131-0.078-0.287-0.15-0.467-0.219s-0.39-0.125-0.628-0.171
		c-0.238-0.046-0.514-0.069-0.825-0.069c-0.56,0-1.071,0.096-1.536,0.288s-0.865,0.466-1.201,0.821
		c-0.336,0.355-0.598,0.789-0.784,1.299c-0.188,0.511-0.281,1.083-0.281,1.716c0,0.652,0.094,1.233,0.281,1.745
		c0.187,0.511,0.442,0.943,0.767,1.295c0.323,0.353,0.706,0.622,1.149,0.807c0.442,0.185,0.92,0.277,1.431,0.277
		c0.312,0,0.592-0.018,0.84-0.055c0.248-0.036,0.478-0.093,0.689-0.171c0.212-0.078,0.409-0.176,0.592-0.295
		c0.182-0.12,0.366-0.262,0.551-0.427C146.376,70.855,146.456,70.819,146.534,70.819z"/>
	<path fill="#FFFFFF" d="M156.191,62.519v1.153h-5.022v3.475h4.066v1.109h-4.066v3.57h5.022v1.153h-6.445V62.519H156.191z"/>
	<path fill="#FFFFFF" d="M168.66,62.519v1.153h-5.022v3.657h4.293v1.154h-4.293v4.497h-1.423V62.519H168.66z"/>
	<path fill="#FFFFFF" d="M172.741,72.979h-1.416V62.519h1.416V72.979z"/>
	<path fill="#FFFFFF" d="M177.139,62.566c0.061,0.032,0.13,0.096,0.208,0.193l6.059,7.884c-0.014-0.126-0.024-0.25-0.028-0.369
		c-0.005-0.119-0.008-0.235-0.008-0.347v-7.41h1.241v10.461h-0.716c-0.111,0-0.205-0.02-0.28-0.059
		c-0.076-0.039-0.15-0.104-0.223-0.197l-6.052-7.877c0.009,0.122,0.017,0.241,0.021,0.358s0.007,0.224,0.007,0.321v7.453h-1.24
		V62.519h0.729C176.984,62.519,177.078,62.535,177.139,62.566z"/>
	<path fill="#FFFFFF" d="M196.356,72.979h-1.095c-0.127,0-0.229-0.032-0.307-0.095c-0.078-0.063-0.137-0.144-0.176-0.241
		l-0.978-2.526h-4.694l-0.979,2.526c-0.034,0.088-0.092,0.166-0.175,0.234c-0.083,0.068-0.185,0.102-0.307,0.102h-1.095
		l4.183-10.461h1.438L196.356,72.979z M189.502,69.096h3.905l-1.643-4.256c-0.107-0.263-0.212-0.591-0.313-0.985
		c-0.054,0.2-0.106,0.383-0.157,0.551s-0.102,0.315-0.149,0.441L189.502,69.096z"/>
	<path fill="#FFFFFF" d="M199.272,62.566c0.061,0.032,0.13,0.096,0.208,0.193l6.059,7.884c-0.014-0.126-0.024-0.25-0.028-0.369
		c-0.005-0.119-0.008-0.235-0.008-0.347v-7.41h1.241v10.461h-0.716c-0.111,0-0.205-0.02-0.28-0.059
		c-0.076-0.039-0.15-0.104-0.223-0.197l-6.052-7.877c0.009,0.122,0.017,0.241,0.021,0.358s0.007,0.224,0.007,0.321v7.453h-1.24
		V62.519h0.729C199.118,62.519,199.212,62.535,199.272,62.566z"/>
	<path fill="#FFFFFF" d="M215.24,64.154c-0.043,0.073-0.09,0.128-0.139,0.164c-0.048,0.037-0.111,0.055-0.189,0.055
		c-0.083,0-0.179-0.041-0.288-0.124c-0.109-0.083-0.248-0.174-0.416-0.273s-0.37-0.191-0.606-0.274
		c-0.235-0.083-0.521-0.124-0.857-0.124c-0.316,0-0.597,0.042-0.84,0.128c-0.243,0.085-0.446,0.201-0.609,0.347
		s-0.286,0.317-0.368,0.515c-0.083,0.197-0.124,0.41-0.124,0.639c0,0.292,0.071,0.534,0.215,0.726
		c0.144,0.192,0.333,0.357,0.569,0.493s0.504,0.254,0.803,0.354c0.3,0.1,0.606,0.203,0.92,0.31c0.314,0.107,0.621,0.228,0.92,0.361
		c0.3,0.134,0.567,0.303,0.803,0.507c0.236,0.205,0.426,0.455,0.57,0.752c0.143,0.297,0.215,0.662,0.215,1.095
		c0,0.458-0.078,0.887-0.233,1.288c-0.156,0.402-0.384,0.751-0.683,1.048c-0.3,0.297-0.667,0.53-1.103,0.701
		s-0.931,0.255-1.485,0.255c-0.677,0-1.293-0.123-1.851-0.369c-0.558-0.246-1.033-0.578-1.427-0.997l0.408-0.671
		c0.039-0.054,0.087-0.099,0.143-0.135c0.056-0.036,0.118-0.055,0.187-0.055c0.102,0,0.219,0.055,0.35,0.165
		c0.132,0.109,0.296,0.23,0.493,0.361s0.436,0.252,0.716,0.361c0.279,0.109,0.621,0.164,1.025,0.164
		c0.336,0,0.635-0.046,0.897-0.139c0.263-0.092,0.485-0.223,0.668-0.391s0.322-0.369,0.42-0.602
		c0.098-0.234,0.146-0.494,0.146-0.781c0-0.316-0.072-0.575-0.216-0.777s-0.332-0.371-0.565-0.507c-0.234-0.136-0.5-0.252-0.8-0.347
		c-0.299-0.095-0.605-0.192-0.92-0.292c-0.313-0.1-0.62-0.215-0.92-0.347c-0.299-0.131-0.565-0.302-0.799-0.511
		c-0.233-0.209-0.423-0.471-0.565-0.785c-0.145-0.314-0.216-0.702-0.216-1.165c0-0.37,0.071-0.728,0.216-1.073
		c0.143-0.346,0.352-0.652,0.624-0.92s0.609-0.482,1.011-0.643s0.862-0.241,1.384-0.241c0.584,0,1.116,0.092,1.599,0.277
		c0.481,0.185,0.902,0.453,1.263,0.803L215.24,64.154z"/>
	<path fill="#FFFFFF" d="M224.65,62.519v1.153h-5.022v3.475h4.066v1.109h-4.066v3.57h5.022v1.153h-6.445V62.519H224.65z"/>
</g>
</svg>
